<mxfile host="app.diagrams.net" modified="2023-08-29T10:26:03.517Z" agent="Mozilla/5.0 (Windows NT 10.0; Win64; x64) AppleWebKit/537.36 (KHTML, like Gecko) Chrome/116.0.0.0 Safari/537.36" version="21.6.9" etag="Ph3F8-MCdJ-vLqjE9EYV" type="github">
  <diagram name="Page-1" id="L0a6MJIcPMemENP8sOZw">
    <mxGraphModel>
      <root>
        <mxCell id="0" />
        <mxCell id="1" parent="0" />
      </root>
    </mxGraphModel>
  </diagram>
</mxfile>
